<svg width="24" height="24" viewBox="0 0 24 24" fill="none" xmlns="http://www.w3.org/2000/svg">
<path d="M13.9999 11.6667H17.9999" stroke="#CE7A58" stroke-width="1.5" stroke-linecap="round" stroke-linejoin="round"/>
<path d="M13.9999 15.6666H17.9999" stroke="#CE7A58" stroke-width="1.5" stroke-linecap="round" stroke-linejoin="round"/>
<path d="M20.6667 5H18V5.66667C18 6.1971 17.7893 6.70581 17.4142 7.08088C17.0391 7.45595 16.5304 7.66667 16 7.66667C15.4696 7.66667 14.9609 7.45595 14.5858 7.08088C14.2107 6.70581 14 6.1971 14 5.66667V5H10V5.66667C10 6.1971 9.78929 6.70581 9.41421 7.08088C9.03914 7.45595 8.53043 7.66667 8 7.66667C7.46957 7.66667 6.96086 7.45595 6.58579 7.08088C6.21071 6.70581 6 6.1971 6 5.66667V5H3.33333C2.97971 5 2.64057 5.14048 2.39052 5.39052C2.14048 5.64057 2 5.97971 2 6.33333V18.3333C2 18.687 2.14048 19.0261 2.39052 19.2761C2.64057 19.5262 2.97971 19.6667 3.33333 19.6667H20.6667C21.0203 19.6667 21.3594 19.5262 21.6095 19.2761C21.8595 19.0261 22 18.687 22 18.3333V6.33333C22 5.97971 21.8595 5.64057 21.6095 5.39052C21.3594 5.14048 21.0203 5 20.6667 5V5Z" stroke="#CE7A58" stroke-width="1.5" stroke-linecap="round" stroke-linejoin="round"/>
<path d="M10 11.6667H6V15.6667H10V11.6667Z" stroke="#CE7A58" stroke-width="1.5" stroke-linecap="round" stroke-linejoin="round"/>
</svg>
