<svg width="20" height="20" viewBox="0 0 20 20" fill="none" xmlns="http://www.w3.org/2000/svg">
<path d="M4.56542 6.68478C4.67249 6.68474 4.77852 6.70578 4.87746 6.74672C4.97639 6.78765 5.06629 6.84767 5.14203 6.92336L9.99993 11.7818L14.8578 6.92336C15.0108 6.77044 15.2182 6.68452 15.4344 6.68452C15.6507 6.68452 15.8581 6.77044 16.011 6.92336C16.164 7.07628 16.2499 7.28369 16.2499 7.49996C16.2499 7.71623 16.164 7.92364 16.011 8.07656L10.5765 13.5111C10.5008 13.5868 10.4109 13.6469 10.312 13.6879C10.2131 13.7289 10.107 13.75 9.99993 13.75C9.89284 13.75 9.78679 13.7289 9.68786 13.6879C9.58892 13.6469 9.49903 13.5868 9.42333 13.5111L3.98882 8.07656C3.87474 7.96256 3.79705 7.81727 3.76556 7.6591C3.73408 7.50092 3.75022 7.33696 3.81195 7.18796C3.87368 7.03896 3.97822 6.91162 4.11234 6.82205C4.24647 6.73248 4.40414 6.68471 4.56542 6.68478Z" fill="#82858A"/>
</svg>
