<svg width="36" height="36" viewBox="0 0 36 36" fill="none" xmlns="http://www.w3.org/2000/svg">
<path d="M5.72727 9.95455C7.2335 9.95455 8.45455 8.7335 8.45455 7.22727C8.45455 5.72104 7.2335 4.5 5.72727 4.5C4.22104 4.5 3 5.72104 3 7.22727C3 8.7335 4.22104 9.95455 5.72727 9.95455Z" stroke="white" stroke-width="2" stroke-miterlimit="10" stroke-linecap="round" stroke-linejoin="round"/>
<path d="M5.72727 20.8636C7.2335 20.8636 8.45455 19.6426 8.45455 18.1364C8.45455 16.6301 7.2335 15.4091 5.72727 15.4091C4.22104 15.4091 3 16.6301 3 18.1364C3 19.6426 4.22104 20.8636 5.72727 20.8636Z" stroke="white" stroke-width="2" stroke-miterlimit="10" stroke-linecap="round" stroke-linejoin="round"/>
<path d="M5.72727 31.7727C7.2335 31.7727 8.45455 30.5517 8.45455 29.0454C8.45455 27.5392 7.2335 26.3182 5.72727 26.3182C4.22104 26.3182 3 27.5392 3 29.0454C3 30.5517 4.22104 31.7727 5.72727 31.7727Z" stroke="white" stroke-width="2" stroke-miterlimit="10" stroke-linecap="round" stroke-linejoin="round"/>
<path d="M13.9091 7.22727H33" stroke="white" stroke-width="2" stroke-miterlimit="10" stroke-linecap="round" stroke-linejoin="round"/>
<path d="M13.9091 18.1364H33" stroke="white" stroke-width="2" stroke-miterlimit="10" stroke-linecap="round" stroke-linejoin="round"/>
<path d="M13.9091 29.0455H33" stroke="white" stroke-width="2" stroke-miterlimit="10" stroke-linecap="round" stroke-linejoin="round"/>
</svg>
