<svg width="31" height="32" viewBox="0 0 31 32" fill="none" xmlns="http://www.w3.org/2000/svg">
<path d="M11.9273 29.5757C11.9273 29.5757 1.06665 18.631 1.06665 11.9273C1.06665 5.05521 6.67887 1.06665 11.9273 1.06665C17.1756 1.06665 22.7879 5.05521 22.7879 11.9273C22.7879 12.363 22.7417 12.8165 22.6562 13.2848" stroke="white" stroke-width="2" stroke-miterlimit="10" stroke-linecap="round" stroke-linejoin="round"/>
<path d="M22.7878 21.4303V24.1454H25.503" stroke="white" stroke-width="2" stroke-miterlimit="10" stroke-linecap="round" stroke-linejoin="round"/>
<path d="M22.7879 30.9333C26.5367 30.9333 29.5758 27.8943 29.5758 24.1454C29.5758 20.3966 26.5367 17.3575 22.7879 17.3575C19.039 17.3575 16 20.3966 16 24.1454C16 27.8943 19.039 30.9333 22.7879 30.9333Z" stroke="white" stroke-width="2" stroke-miterlimit="10" stroke-linecap="round" stroke-linejoin="round"/>
<path d="M11.9272 15.9999C14.1765 15.9999 15.9999 14.1765 15.9999 11.9272C15.9999 9.67791 14.1765 7.85449 11.9272 7.85449C9.67791 7.85449 7.85449 9.67791 7.85449 11.9272C7.85449 14.1765 9.67791 15.9999 11.9272 15.9999Z" stroke="white" stroke-width="2" stroke-miterlimit="10" stroke-linecap="round" stroke-linejoin="round"/>
</svg>
