<svg width="72" height="72" viewBox="0 0 72 72" fill="none" xmlns="http://www.w3.org/2000/svg">
<path d="M30 6C16.744 6 6 14.956 6 26C6 30.084 7.476 33.88 10 37.048V52L20.292 44.28C23.26 45.38 26.54 46 30 46C43.256 46 54 37.044 54 26C54 14.956 43.256 6 30 6Z" stroke="white" stroke-width="6" stroke-miterlimit="10" stroke-linecap="round" stroke-linejoin="round"/>
<path d="M24.876 54.0159C29.232 57.7079 35.296 59.9999 42 59.9999C45.132 59.9999 48.116 59.4839 50.86 58.5759L62 65.9999V51.0479C64.524 47.8799 66 44.0879 66 39.9999C66 36.3639 64.836 32.9559 62.804 30.0199" stroke="white" stroke-width="6" stroke-miterlimit="10" stroke-linecap="round" stroke-linejoin="round"/>
</svg>
