<svg width="16" height="16" viewBox="0 0 16 16" fill="none" xmlns="http://www.w3.org/2000/svg">
<g clip-path="url(#clip0)">
<path d="M7.09201 9.44214L8.5225 12.9929C8.64207 13.2908 8.63856 13.6238 8.51275 13.9191C8.38693 14.2143 8.1491 14.4475 7.85147 14.5676V14.5676C7.55365 14.6871 7.22056 14.6836 6.92532 14.5578C6.63009 14.432 6.39686 14.1942 6.27683 13.8965L4.07477 8.4798" stroke="#CE7A58" stroke-miterlimit="10" stroke-linecap="round" stroke-linejoin="round"/>
<path d="M11.8256 1.40543L2.55402 4.3615C2.17174 4.47525 1.84133 4.71922 1.62009 5.05107C1.39885 5.38293 1.30074 5.78176 1.34276 6.17838C1.30074 6.57501 1.39885 6.97383 1.62009 7.30569C1.84133 7.63755 2.17174 7.88151 2.55402 7.99527L11.8256 10.9513" stroke="#CE7A58" stroke-miterlimit="10" stroke-linecap="round" stroke-linejoin="round"/>
<path d="M12.2441 11.0234C13.582 11.0234 14.6666 8.85421 14.6666 6.17837C14.6666 3.50254 13.582 1.33334 12.2441 1.33334C10.9062 1.33334 9.82156 3.50254 9.82156 6.17837C9.82156 8.85421 10.9062 11.0234 12.2441 11.0234Z" stroke="#CE7A58" stroke-miterlimit="10" stroke-linecap="round" stroke-linejoin="round"/>
<path d="M12.0151 5.30692C12.2298 5.54651 12.3489 5.8567 12.3497 6.1784C12.3489 6.50011 12.2298 6.81029 12.0151 7.04989L12.3874 7.38358L12.0151 7.04989C11.9038 7.17404 11.7709 7.27474 11.6242 7.34796C11.5617 6.96231 11.5311 6.57187 11.5328 6.1806L11.5328 6.17621C11.5311 5.78494 11.5617 5.3945 11.6242 5.00885C11.7709 5.08207 11.9038 5.18277 12.0151 5.30692Z" fill="#903938" stroke="#CE7A58"/>
</g>
<defs>
<clipPath id="clip0">
<rect width="16" height="16" fill="white" transform="translate(-0.00012207)"/>
</clipPath>
</defs>
</svg>
