<svg width="20" height="20" viewBox="0 0 20 20" fill="none" xmlns="http://www.w3.org/2000/svg">
<path d="M8.30562 12.389C8.30562 12.6668 8.22229 12.889 8.05562 13.0279C7.88895 13.1668 7.63895 13.2501 7.30562 13.2501H7.0834V14.1668H6.52784V11.5834H7.36117C7.66673 11.5834 7.91673 11.639 8.0834 11.7779C8.22229 11.9168 8.30562 12.139 8.30562 12.389ZM7.05562 12.8057H7.22229C7.38895 12.8057 7.52784 12.7779 7.61117 12.6945C7.69451 12.6112 7.75006 12.5279 7.75006 12.4168C7.75006 12.2779 7.72229 12.1945 7.63895 12.139C7.55562 12.0834 7.47229 12.0557 7.30562 12.0557H7.05562V12.8057Z" fill="#CE7A58"/>
<path d="M11.0001 12.8612C11.0001 13.2779 10.889 13.6112 10.639 13.8334C10.389 14.0557 10.0556 14.1668 9.58341 14.1668H8.86119V11.5834H9.66674C10.0834 11.5834 10.4167 11.6945 10.639 11.9168C10.889 12.139 11.0001 12.4445 11.0001 12.8612ZM10.4167 12.8612C10.4167 12.3057 10.1667 12.0279 9.69452 12.0279H9.41674V13.6945H9.63897C10.1667 13.7223 10.4167 13.4445 10.4167 12.8612Z" fill="#CE7A58"/>
<path d="M12.1389 14.1668H11.6111V11.5834H13.0833V12.0279H12.1389V12.6945H13V13.139H12.1389V14.1668Z" fill="#CE7A58"/>
<path d="M11.9445 1.66669V6.11113H16.389" stroke="#CE7A58" stroke-miterlimit="10"/>
<path d="M16.3889 10V6.11113L11.9445 1.66669H3.05561V10" stroke="#CE7A58" stroke-miterlimit="10" stroke-linecap="square"/>
<path d="M3.05561 15.8334V18.3334H16.3889V15.8334" stroke="#CE7A58" stroke-miterlimit="10" stroke-linecap="square"/>
<path d="M17.7778 10H1.66673" stroke="#CE7A58" stroke-miterlimit="10"/>
<path d="M3.05562 8.61115L1.66673 10V15.8334H17.7778V10L16.3889 8.61115" stroke="#CE7A58" stroke-miterlimit="10"/>
</svg>
