<svg width="16" height="16" viewBox="0 0 16 16" fill="none" xmlns="http://www.w3.org/2000/svg">
<path d="M1.33322 7.33333L7.99989 2L14.6666 7.33333" stroke="#CE7A58" stroke-miterlimit="10"/>
<path d="M7.9999 10C8.73628 10 9.33323 9.40309 9.33323 8.66671C9.33323 7.93033 8.73628 7.33337 7.9999 7.33337C7.26352 7.33337 6.66656 7.93033 6.66656 8.66671C6.66656 9.40309 7.26352 10 7.9999 10Z" stroke="#CE7A58" stroke-miterlimit="10" stroke-linecap="square"/>
<path d="M11.111 14.4445C11.111 13.6194 10.7832 12.828 10.1998 12.2446C9.61632 11.6612 8.82499 11.3334 7.99987 11.3334C7.17476 11.3334 6.38343 11.6612 5.79999 12.2446C5.21654 12.828 4.88876 13.6194 4.88876 14.4445" stroke="#CE7A58" stroke-miterlimit="10"/>
<path d="M3.11102 6.66663V14.4444H12.8888C12.8888 14.4444 12.8888 9.09656 12.8888 6.66663" stroke="#CE7A58" stroke-miterlimit="10" stroke-linecap="square"/>
</svg>
