<svg width="32" height="31" viewBox="0 0 32 31" fill="none" xmlns="http://www.w3.org/2000/svg">
<path d="M1.06665 13.5066L16 1.55994L30.9333 13.5066" stroke="white" stroke-width="2" stroke-miterlimit="10"/>
<path d="M16 19.4799C17.6495 19.4799 18.9866 18.1427 18.9866 16.4933C18.9866 14.8438 17.6495 13.5066 16 13.5066C14.3505 13.5066 13.0133 14.8438 13.0133 16.4933C13.0133 18.1427 14.3505 19.4799 16 19.4799Z" stroke="white" stroke-width="2" stroke-miterlimit="10" stroke-linecap="square"/>
<path d="M22.9689 29.4355C22.9689 27.5872 22.2347 25.8147 20.9278 24.5078C19.6208 23.2008 17.8483 22.4666 16 22.4666C14.1518 22.4666 12.3792 23.2008 11.0723 24.5078C9.76535 25.8147 9.03113 27.5872 9.03113 29.4355" stroke="white" stroke-width="2" stroke-miterlimit="10"/>
<path d="M5.04883 12.0132V29.4355H26.9511C26.9511 29.4355 26.9511 17.4562 26.9511 12.0132" stroke="white" stroke-width="2" stroke-miterlimit="10" stroke-linecap="square"/>
</svg>
