<svg width="16" height="16" viewBox="0 0 16 16" fill="none" xmlns="http://www.w3.org/2000/svg">
<path d="M11.8181 12.8187H13.9999V10.4607C13.9998 10.3517 13.9671 10.2452 13.906 10.155C13.8448 10.0648 13.758 9.99493 13.6568 9.95449L11.6157 9.13631C11.5147 9.09594 11.428 9.02627 11.3669 8.93627C11.3057 8.84626 11.2729 8.74002 11.2726 8.63122V8.15231C11.6035 7.96246 11.8784 7.68884 12.07 7.35898C12.2615 7.02911 12.3627 6.65464 12.3635 6.27322V5.18231C12.3636 4.79928 12.2629 4.42297 12.0714 4.09123C11.88 3.75948 11.6045 3.48398 11.2729 3.29243C10.9412 3.10088 10.5649 3.00002 10.1819 3C9.79882 2.99998 9.42253 3.10079 9.09082 3.29231" stroke="#CE7A58" stroke-miterlimit="10" stroke-linecap="round" stroke-linejoin="round"/>
<path d="M9.29321 10.4999L7.25212 9.68172C7.15108 9.64135 7.06442 9.57168 7.00328 9.48168C6.94214 9.39167 6.90932 9.28543 6.90903 9.17663V8.93063C8.69267 8.69226 9.09085 7.90953 9.09085 7.90953C9.09085 7.90953 7.99994 6.81863 7.99994 5.72772C7.99994 5.14906 7.77007 4.59411 7.3609 4.18494C6.95173 3.77577 6.39678 3.5459 5.81812 3.5459C5.23947 3.5459 4.68451 3.77577 4.27534 4.18494C3.86617 4.59411 3.6363 5.14906 3.6363 5.72772C3.6363 6.81863 2.54539 7.90953 2.54539 7.90953C2.54539 7.90953 2.94358 8.69226 4.72721 8.93063V9.17663C4.72714 9.28562 4.69442 9.39209 4.63327 9.48232C4.57212 9.57254 4.48534 9.64237 4.38412 9.68281L2.34303 10.501C2.24199 10.5414 2.15533 10.611 2.09419 10.701C2.03305 10.791 2.00023 10.8973 1.99994 11.0061V12.8186H9.6363V11.0061C9.63623 10.8971 9.60351 10.7906 9.54236 10.7004C9.48121 10.6102 9.39443 10.5403 9.29321 10.4999Z" stroke="#CE7A58" stroke-miterlimit="10" stroke-linecap="round" stroke-linejoin="round"/>
</svg>
